/* XPM */
static char *_f95b36bf8344ea2a57b05bf65765478EvbsCeo9UmzF6dW6[] = {
/* columns rows colors chars-per-pixel */
"64 64 113 2 ",
"   c #0F343C",
".  c #10353E",
"X  c #143C45",
"o  c #1E3D43",
"O  c #163F49",
"+  c #16424B",
"@  c #19444D",
"#  c #174450",
"$  c #1B4650",
"%  c #1C4B54",
"&  c #1E4F58",
"*  c #1F5059",
"=  c #22444B",
"-  c #23484E",
";  c #234C54",
":  c #214F59",
">  c #275057",
",  c #23535D",
"<  c #29555D",
"1  c #245661",
"2  c #295761",
"3  c #265A64",
"4  c #2A5B65",
"5  c #275E6A",
"6  c #2B5E6A",
"7  c #305962",
"8  c #335F6A",
"9  c #27606C",
"0  c #2C626D",
"q  c #31636E",
"w  c #2C6571",
"e  c #2E6A75",
"r  c #2F6C78",
"t  c #316672",
"y  c #386773",
"u  c #326A75",
"i  c #3C6975",
"p  c #326E7A",
"a  c #3A6E7C",
"s  c #34717E",
"d  c #3A727E",
"f  c #41727F",
"g  c #376F80",
"h  c #386F80",
"j  c #367481",
"k  c #397683",
"l  c #3D7585",
"z  c #3E7983",
"x  c #397884",
"c  c #3A7885",
"v  c #3B7A87",
"b  c #3E7C87",
"n  c #3F7788",
"m  c #3D7B89",
"M  c #3D7D89",
"N  c #407180",
"B  c #437382",
"V  c #407685",
"C  c #427686",
"Z  c #407B85",
"A  c #417A86",
"S  c #407788",
"D  c #41798A",
"F  c #447888",
"G  c #447A8B",
"H  c #437C8B",
"J  c #427F8A",
"K  c #457B8C",
"L  c #487D8E",
"P  c #497E8E",
"I  c #487E90",
"U  c #497F90",
"Y  c #3F808B",
"T  c #42818C",
"R  c #43828D",
"E  c #43838F",
"W  c #44818C",
"Q  c #47838F",
"!  c #46848F",
"~  c #49828F",
"^  c #478490",
"/  c #468591",
"(  c #458792",
")  c #4C8193",
"_  c #498492",
"`  c #4B8492",
"'  c #498693",
"]  c #4B8294",
"[  c #468893",
"{  c #478893",
"}  c #4A8993",
"|  c #488A95",
" . c #4C8A95",
".. c #4B8D97",
"X. c #4D8C97",
"o. c #4D8E99",
"O. c #518697",
"+. c #518897",
"@. c #528799",
"#. c #528B9A",
"$. c #4E919B",
"%. c #51929C",
"&. c #53949F",
"*. c #5696A1",
"=. c #559AA2",
"-. c #5A9CA6",
";. c #60A4AD",
":. c #65A7B2",
">. c #F3F6F7",
",. c #F3F7F8",
"<. c #F4F7F8",
"1. c #F3F8F8",
"2. c #F4F8F9",
/* pixels */
"k x x k x x j s p 0 2 K I K  .&.*._ _ D 1 w s j k x j r 0 0 s l 1 @ & & , , , * 6 D m j j j j x x x j w < = o ; 3 s j x x j p >.",
"k k k k x x j s p r < 4 C C L _ ) a F ; 4 u s p j x j u w 0 p l 4 & 1 1 4 6 4 3 , t F u r p j x x j s s s t 0 r s k R [ | ( M ,.",
"j s x k j k k j r u w 4 - 7 N N N = ; < e s s p s k s r p p l C t 1 6 0 0 t t t 0 a K w 0 w s x x x x x x k x k x M | o.( | R 1.",
"b s j k k k j k p j s w < ; = = - ; < w p j j j s k s s r r p l u 0 u u u d d l d C I w 0 r p k x x x x x x x s x ( _ l l o.( 1.",
"} s s j k x j j k k j r 0 2 > > 2 6 w s j x x x j k j p w 0 r S p s z z Z R ! J K ] D u r p p p x k k x k x k s x j 5 6 6 4 t <.",
"_ s p j k k j j x s s p p u w 0 t p j j x x k j j j j p w 0 w d l k J ( X.| X.R _ C u p s j k s k k k k j k p x D t + @ $ $ , >.",
"6 l p s k x j j s p r j s s s s s k x x j j k j k s j s w w 0 t K K ~ _ %.*._ ] C 2 3 r s s x x j k x k j s r s l 1 & , 1 , , >.",
"3 D s j j k x p p s z [ R k j j k x k j k s s k x j j j p p 0 2 a I ) _ #.#.) N 2 3 0 r s j x x j x j k x j p j k , 3 4 6 6 6 <.",
"0 D p s j j s p p j l m m J x p s x x x k k s j k k x r j s e 3 > < F ] @.) > ; ; 0 p p p x x k j x k j k j u D S w u t t t s <.",
"u D e s k x p p j d @ % @ 4 x j j x j x x j p s j j k j x j p w 1 > > ; ; < - ; 1 e s k k j x j s j x s j p p D D p k z J z J 2.",
"I K p s p p p r l + * , , % 6 p s j k x k k j p p s e j x s p r w 0 < ; ; 2 > 4 w p s s k x j p j s p s j p j j l u b R _ | _ 2.",
"L p j j x x j j C 3 4 6 6 4 a j p k p x j j j s r r s x M s r r r u 0 2 4 0 w u s s p s j j s p r p s j x k j u t D R o.%.%.K <.",
"0 u k x k j s p C p q u u u d p s x p j s s s j j z R ( | M s s s s p u w p j j j j p r p x s s s s s s k p x s p k K I L F F <.",
"u p x x k j s s D z J R R ~ l p j x k p p r p M R R R ! ..R M Y x s p s x x x j s s p w s R R x z R s r s j j s p 0 4 u 0 1 3 >.",
"k x x x k k j p k K _  ._ K a p s j p s p p j R | t 4 4 4 6 k [ M p r p j x x x j s p s k k 6 6 t J z e r r u x j p w 5 5 0 w <.",
"k j k k k k j s u y i i a u u j k s w r p j x k 6 X   . . X > w x s e p j x x k s p p x a 6 + + % 6 u u 0 w p j s j s u u p s ,.",
"s s s s k k x x j w 2 < 6 t j x j p r 0 r k j 6 + X + @ @ + X $ t k p s j s s s s p p d 4 : , 3 , % 6 p w w p j s k j j j p r >.",
"x j j s j j k x k p p p s j x x j s r w s k 0 @ @ $ & & & & % @ 4 l x p s r s r r r p 4 , 4 4 0 0 4 2 u u p j x j k j s j s s 1.",
"[ ( R M s r s j k j k j k k x j j s s x j t @ $ & , * , , , , & t S p 0 0 r j p w 0 p , 4 t y u u t < u r w s j x k p r s M R 2.",
"l l ( %.s r p j x x x k k k x j r r w p k w @ , , 1 3 < 3 3 1 1 u D p w w p k s r w j 0 p p d d d p 2 t 5 5 p p x j p r j &.D <.",
"k j j l j p s j j j x x j k x j r w 0 r l u , 1 3 4 0 6 4 0 4 3 p F x r r s j j r 5 p 0 l k Z K R R w u p w s j p r p s j x x <.",
"@ @ , l R M p w s x j j x x x s p r 0 l u $ 3 6 0 0 q t t t 0 0 j K u w w r j s r 5 d K R _ #.%.$.! J K w u j k u r r z l j $ >.",
", , , 6 l p w w p j k x x j j j s s p l u , 0 0 t t u u q d z k Z I w 3 5 r j j r 0 p D L | %.*.#._ I t 0 r r s s r e k j , ; >.",
"6 6 6 3 u d w r s j k x k k j j j s p r D j w s d d d d s z J l D K w 5 w p j s s p 3 a C k _ L C C a 0 w s j p r r M K 4 , 4 <.",
"0 0 0 0 a ( x p s j s x x x x j p p 0 0 D l u l Z J Z R R R R K ] p r p p s j k j s r 4 2 @ k d 4 ; 3 w p j s s r 0 u j 0 0 0 <.",
"p p p u k K u w p s x x x x x j p r 0 5 d K F J J R ( (  .} R L F 0 0 p s s k j s j s p 4 > > 2 , 3 w r p j k s p w p l p p d <.",
"D J Z z Z K p w p j k x k x x x p r w 5 0 k L _ K ! | %.%.! ~ O.a 3 0 r s j j k k j k k p 0 0 e w u p p p p k j s w u D j k z 2.",
"R R R K K k w p p k k k k k k x s p r 0 0 6 a I ~ _ #.#.#.+.@.L t w e p p x k k j s j j j s s s j j p s s j s p r w u D l D J 2.",
"Z R I _ _ p 0 p j x s j x j k x j p r p r 3 < 4 F @.#.@.O.) y 0 0 r p p j j j j p p p s j x k j j k j k x x j s s s u d D K K <.",
"F I I _ k 0 w p j x j j s s j s j j s p p 0 3 < 2 2 < ; < q 6 6 r p s p s k p p p p p j s s j j k x x x x x x x s s r 0 a K K <.",
"I C ; 2 6 w r s k j k p r r p r j j s j p r r w 4 > ; ; : 4 e w p s s j s j p p r s s x j w p p s j j x x x x x k j p 0 2 < ; >.",
"> @ ; 4 u p r s j p s x M R Y z M p p p j s p s p w 6 6 0 r p j j j j p p w s j x Y R ..b p s s s s j x x x x k s s p r 6 , ; >.",
"6 1 3 w s j s j s p x | o.$.$.$.$.x p p j k x j s r p p s j k x x x p s w r k R R &.-.:.=.k x M j w p j x x s x s x k j s 0 3 >.",
"p w p s j k j p s x R [ p u u u *.( s w p p p j k j j j j k j j s s u p w s R ( p u u u w t p ( x r r p j k s x j s s j p s p 1.",
"k s x k k s s s j M j t 3 X X X 6 k R j p s s j j j x x j s k x j p 0 0 p R R w :   . . .   0 x x r w p j j x k p s x z j s s >.",
"k k k x x j s p x j 6 @ $ & & & $ t l k r p j j k j x k s s x j s r 5 r R _ ,   X + @ @ @ + O t j p p s s k k s p t w w d p s 1.",
"k k k k j s u p z j @ , , , 1 3 , : w l s s j j j k x j s s k j j p w p R u X O @ & & & & & $ ; l j s u p j j u p @ % % 6 u p >.",
"k x x x k s u r j 6 , 3 3 3 6 6 4 4 % D j s s s j j s p k x k j s p s s j , @ & * , , , , , , 3 D k e 0 p s s p j 3 2 4 t r s >.",
"k x j j s s p p l ; 4 4 0 0 0 0 0 0 3 k p p p s j s s j p x j p r w p j k + & , 1 1 3 4 4 3 , 6 D z p r p j s s D s d d Z j j >.",
"s x j j s p u w k 1 0 0 t u u p d s 0 l r u u p j k s s s k j p e 0 0 j x & 1 1 4 4 4 0 0 0 4 0 K l s p p p k r u K _ _ ) j j >.",
"k x x k j p u u l u t k z z Z z J b S D w r r p j x s p s k j s e 0 w k C 1 4 6 6 0 q t t t p t K l w w p s x s u ; q i 6 p k >.",
"k x x x j j s p l S u J R ! ( ( ( l K D r r r p j s j k r j j s s s j l m w e 0 t t u u u k z l F j 9 w r s s p j 0 > 6 e p s >.",
"s s p x x j p w 6 D D z _ | X.X.K K K 0 r j j j s p s x k s x j s p r l D u u d d d d Z J d Z a ) l w 0 r p x x x x j j k s j ,.",
"s s p s s s p r w 3 C D R  .o.( I F 3 0 r p j j j j j k j k k j p r 0 l l t d k z J R ( ( ( R ] K p u w e j s k s x j s s p j >.",
"J M x s s j s p p 4 < C F L F C C > 6 p p s p s s x k p j k j s r 0 9 3 C F p z J _ | X.| R F ] k 9 w r s k x s x x s u r M R 2.",
"t t x k s s s j p w < ; 7 f 8 ; ; , w s j s p z J } | s p p s p w w 0 3 l K D Z _ _ X.#.o.~ @.L 3 0 w p j k k s j k j s s  .u <.",
"@ @ t j s p p s s p w 0 < > < 2 4 0 p p j p j p & + w J p p j s s r r r 6 a a ) ) ~ _ ` ) #.) k 5 r r s j j k x j j s j x w + >.",
"1 , ; 0 p p p p j j s p 0 0 t u r r s s j p p 0 1 3 1 D u s s s j p r p 0 : , a F O.) O.O.f a 6 w p s j j s s x k s j x t , , >.",
"0 6 2 0 j s s j k s j j p p s j j s k x j p p p u p p K p s j j k j s s e 6 3 < 4 y y y a 4 5 r p s j j j s j x j p s C 8 4 0 <.",
"u u t p k u p j j s k k s p s j j j j j j p u j J R R t p j x k j j j s p r e 0 3 : ; ; 3 e r p s j k k k j k x s p p y 4 q u <.",
"C l l j j r p k j p s s x x z M M M j j j p p 0 i 4 8 w s p j k k k k k j s j s r 0 6 0 e s s j j k x x x k s k p s j 4 6 l d <.",
" .R C q l p j x j p r x ( [ | | ..| ( x s s s p 6 < t p j k k x x p j s x s x j p p p p r s k k s j j j j x k k p p s l d J _ 2.",
"$.o.K K j r p s j p k R $.=._ x x ;.$.Y j p j j s s p k s k p s k k x k e k j p s j k j k s x k s j s j x x j x j p r a D R o.2.",
"_ F K a w s p p p x R R j j j j j x l -.M s p j x x x x p k j x x j k x x k x j s j p k j x k s k x x x k s p j k p p 6 a I _ <.",
"K ; < w s s s p s b %.k j ,   . . u a n ( j p s j k x x x j j x x x x j k p p s j j x s s x x k j s j k j s s p j j j u 4 > C 2.",
"6 2 0 u j j s p k J k k 2 X + @ + O X u D R j s p j x k k s j k k x x x s k s j j s k x x x j p p s j s j j x j r p k j u 4 < >.",
"u u s j j j s j R h k 6 @ % * , , , $ % a R s u s j x s x j j p j k k s p s j j j k k x j x s p j s p s J  .J R p p j k s w w >.",
"k k j j j p p s M l 6 % , , 3 3 3 3 1 , 1 m j p s k x x k s k s s s s r s j j s s j j x s x x j j p r z t q # t j s p j s s p >.",
"k x j k j p r p l k % 1 3 4 6 6 6 0 6 4 0 J x p s j x x j s j j s s j j z M x x p s s k x k x x j r p q , 1 3 1 u j r s k x s >.",
"k k j x j s p s l l , 0 0 0 0 t 0 t t 0 t K x p p s j x x j s s s Y ( ( | | [ Y j p s j k k x x j p j 0 6 t t t 0 j w p j k x <.",
"k k k k k j s s n S 4 u p u u u u p d s u D p r p s j k j r r p x $.( m M J m M M j p s j x s k j r s p d d d l k l r s j x x >.",
"s k k k k j p r u D j d k z Z J J J J J D m p p p j x x p r p s k m x j x g k l J M p p s j p s p r d D z R } _ L D r s j j x >.",
"k k s j j s p r r F D p Z R ( _ } } _ R _ l p s p p k j s w e p j p % X O + O : l x s w r s j r j s 0 k I _ _ ] K 0 r s p j s <.",
"k x j x s s s s s 0 K k l R } #.%.%. ._ D 0 p s j s k j w p M J l , X + + $ @ O 2 n k p p s k p s j s 2 o F ] = ; w s j j k x >."
};
