/* XPM */
static char *_2330f9ca3ca4321a0d8fe1f953f7861osSp1luvMxG3rr84[] = {
/* columns rows colors chars-per-pixel */
"64 64 32 1 ",
"  c #1A151F",
". c #36274B",
"X c #42343B",
"o c #3C336A",
"O c #264042",
"+ c #393B42",
"@ c #6A2F56",
"# c #813836",
"$ c #474C80",
"% c #7D413C",
"& c #69469B",
"* c #B03B59",
"= c #3C7253",
"- c #72615F",
"; c #B4563E",
": c #A1624E",
"> c #B158D3",
", c #6D767B",
"< c #E06465",
"1 c #5590B4",
"2 c #C68B60",
"3 c #6BB453",
"4 c #E981E4",
"5 c #DD9254",
"6 c #B4A091",
"7 c #F29380",
"8 c #B3BDB6",
"9 c #E5BD85",
"0 c #81D7CE",
"q c #C1DC71",
"w c #EAD074",
"e c #F6F5DE",
/* pixels */
"-X--------%----X----%---%-----%%X------%-%---------%-------%%---",
"-XX---X------------%%%%%%%%%%%%%XX%%--%%-%-%--XX%%%%%%----%%%-%%",
"XXXXXXXX%%X%%%XX%%%%%%%%X%%X X %%XXX%X%%%%%%%XXXX%%X%X%%%%%%%XX%",
"X   XXXXXXXX     X   XXX       %    XXXXXXXXXXXXXXXXXXXXXX     %",
"X XXX%X%%%%%%%%%%%%%%%%%%%X X  %  %%%%%%%%%%%%%%%%%%%%%%%%%%XX %",
"% XXX%XX%%%%%%%%%%%%%%%%%%%%%  % X%%##%#%%%%%%X%%%%%%%XX%%%XXX %",
"% XX-X-X%%%%%%%%%%%%%%%%%%%%%X %X%%%%%%%%%%X%X%%%%%%%%%%X%XXXXX%",
"% XX------%%%%%%%%%%%%%%%%%%%% %XX%%%%%%%%%%%X-%%%%%%%%%%--%XXX%",
"X XX-------%%%%%%%%X%%%%%%%%%% %XX%%%%%-%%%%%X%%%%%%%%%%%%%%-XX%",
"XXX-------------%----%%%%%%%%% %XX%%%%%%%%%%%X%%%%%%%%%%%#%%XX %",
"XXX-------------------%%%%%%%% %XX%%%%%-%%%%%X%%%%%%#%##%%%%%X %",
"XXX-------------------%%%%%%%% %XX%%%%%-%%%%-X%%%%%%%%##%%-%%% %",
"XXX-------------------%%%%%%%% %XX%%%%%-%%%%%X%%%%%%%%%%%%-%%%X%",
"X X-------------------%%%%%%%% #XX%%%%-%%%%%%X-%%%%%%%%%%--%XXXX",
"X X-------------------%%%%%%%% %XX%%%%%%%%%%%X-%%%%%%%%%%--%%XXX",
"X X--------------------%%%%%%%X%XX%%%%%%%%%%%X-%%%%%%%%%---%%XXX",
"X X-------------------%%%%%%%% %XX%%%%%%%%%%%X-%%%%%%%%%%--%%XXX",
"X X--------------------%%%%%%%X%XX%%%%%%%%%%%X-%%%%%%%%%---%%XXX",
"X X----------------%%%--%%%%%%X%XX%%%%%%%%%%%X-%%%%%%%%----%%XX%",
"% X----------------%%%%%-%%%%%X#X%%%%%%%%%%%-XX%%%%%%%-----%XXX%",
"% XX----------%-%%%%%%%%---X%%X#%%%%%----%%%%XX%%%%%%%-----%XXX%",
"X XX---------%%%%%%%%%%%X-XX%%X#%%%%%%%%-%%%-X%%%%%X%%------X-X%",
"X XX----------%-X-%%%%%XXX%%%%X#%%%%%%%%--%-%XX%%%%%%%------X-X%",
"% XX------------XXXXXXXXX%%%%XX%XX%%%%%%%--%%XX%%%%%%%----%XX-X%",
"% XXXXXXX-XXXXXXXXXXXXXX%%%%%X %XX%%%%%%%-%-XXX%X%%XXX-----XX-X%",
"X XXX---X---X---XXXXXX%%%%%%%% %XX%X%X%%%%%-%XX%%XXXXX%%-X-XXXX%",
"X XXX--X%XXX%%%%%%X%%%%%%XX%%X %  %X%XX%%%%%%XXXXXXXX%XXXXXXXXX%",
"X XXXXXX%XX%%%#%%%%XX# X       %  XXXX%%%%%XXXXXXXX%%%%%XXXXXX %",
"X XXX--X%XXX%%%%%%X%%%%%%XX%%X %  %X%XX%%%%%%XXXXXXXX%XXXXXXXXX%",
"X XXXXXX%XX%%%#%%%%XX# X       %  XXXX%%%%%XXXXXXXX%%%%%XXXXXX %",
"X  XXXXXXX                     %  XXXXXXX%XXXXXX%%XX%XXXXXXXX  %",
"X  XXXXXXXXX  XXXXX            %     XXX                  X    X",
"%%XXXXXXXXX%%%%%X%XX%%%%%%%%%##%%%%%%%%%%%%%%%%%%%%%%%%XXX%%XX X",
"%%%X%XX%%%%%#%%X%%%%%###########%XXXXXXXX%XXXXXXXXXXX%%%%%%%%%X ",
"%%%%X%%XX%%%%X%X%%%XX          %XXXXXXXXXXXXXXXXXXXXXXXXXXXXXX  ",
"X  XXXXX XXX         XXXX  X   %                               X",
"%   %XXX%XXX%XXXXX XX%XXXXXX   %           XXXXXX              X",
"%   ###% #% %%%%%%%%%%%X%XXXXX %    X      XXXXXXXXXXXXXXXX    X",
"%   ##%##%% %%%#%%%%%#%%%%%%XX %   XX XX%X X%X%%%XX%%%%%%%XXX  %",
"X   %#%%%%%#%%####%%%%%%%%%%%X #  XX%XX X%X XX%X%X%%%%%%%%%%XX %",
"X   #%%%%%%%%%###%%%#%%%%%%%%% %  XX%%%% %%XXX%%%%%%%%X%%%%%%X %",
"X % ##%%%%%%%%%##%%%%%%%%%%%%% %  XXXXXX X%%% %%X%%%X%X%%%%%%X %",
"X %##%%%%%%%%%%#%%%%%%%%%%%%%% X  XX%XX%%%%%%%%%%%%%%%%%XXXX%X X",
"X X%#%%%%%%%%%%%%%%%%%%%%%%%%%    X%%#%%%%%%%%%%%%%%XXX%X%XX%X X",
"X %#%%%%%%%%%%%%#%%%%%%%%%%%%%    XXX%%%%%%%%%%%%%%%X-%%X%XX%X X",
"X %#%%%%%%%%######%%%%%%%%%%XXX   X%%%%%%%%%%%%%%%XXX---%-XX%X X",
"X %%%%%#%%%%%%%%%%%%%%%%%%%%%%    X%%%%%%%%%%%%%%XXXX--XXX-X%X X",
"X X%%%#%%%%%#%%%%%%%%%%%%%X%%%    XXX%%%%%%%%%%%%%%X%X-XXX-XXX X",
"X X%%%#%%-%%%%%%%%%%%%%%-X%X%%    XXXX%%%%%%%%%X%%%%%%%-XX-XXX X",
"X X%%%%%%%%%%%%%%%%%%%%%%X% %%    XX%X%%%%%%%%%%%XX%%%XXX%XXXX X",
"X X%%%%%%%%#%%%%%%%%%%%%%%%X%%    X%%%%%X%%%%%#%%X%%%%%XXX%%X  X",
"% X%%%%X%-X%%%%%%%%%#%%%XX%%XX     XX%%XXX%%%X XX%%%%%%X%%%%X  X",
"% X%%X-X-X-%%%%%%%%%%%%X%X%XXX      XXXXXXX%% %%%%% XXXX%XXX   X",
"% XXXXXXXXX-XXXXXX%%%%X%X%X%%X      XXXXXXXX%XX%%%%%%X%X%XXXXX X",
"X  XXXXXXXXXXXXXXXXX%-XXXXX%%X     XXXXXXXXXXXXX%%X%XXXX%XX%XX X",
"%  XXXXXX%X%%XXXXXXXXXXXXXX  X     XXXXXXXXXXXXXXXXXXXXXXXXXXX X",
"%  XXXXXXXXXXXXXXXXX%XXXXXX XX     XXXXXXXXXXXX XXXXXXX XX   X X",
"%  XXXXXXXXXXXXXXXXXXXXXXXX        XXXXXXXXXXXX XXXXXXX  X     X",
"X    XX XXXXXXXXXXXX XXXXX             X           XX X  X     X",
"          X                                                    X",
"                                                                ",
"                                                                ",
"XX                                                              ",
",,---XXX--+XXXXXXXXXXXXXXXXXXXXXXXXXXXXXXXX+++X+X+XXX    XXXXXX+"
};
