/* XPM */
static char *_da443ae45014376e38eee7b1b377195FkD8SKoOj5Bl29nE[] = {
/* columns rows colors chars-per-pixel */
"32 32 173 2 ",
"   c #414141",
".  c gray26",
"X  c #434343",
"o  c #444444",
"O  c gray28",
"+  c #484848",
"@  c #494949",
"#  c gray29",
"$  c #4B4B4B",
"%  c gray30",
"&  c #4E4E4E",
"*  c gray31",
"=  c #505050",
"-  c #515151",
";  c gray32",
":  c #535353",
">  c gray33",
",  c #555555",
"<  c #565656",
"1  c gray34",
"2  c #585858",
"3  c gray35",
"4  c #5A5A5A",
"5  c #5B5B5B",
"6  c gray36",
"7  c #5D5D5D",
"8  c #5F5F5F",
"9  c gray38",
"0  c #626262",
"q  c gray39",
"w  c #646464",
"e  c #656565",
"r  c gray40",
"t  c #676767",
"y  c #686868",
"u  c DimGray",
"i  c #6A6A6A",
"p  c gray42",
"a  c #6C6C6C",
"s  c #6D6D6D",
"d  c #6F6F6F",
"f  c gray44",
"g  c #717171",
"h  c #727272",
"j  c gray45",
"k  c gray46",
"l  c #767676",
"z  c #777777",
"x  c gray47",
"c  c #797979",
"v  c gray48",
"b  c #7B7B7B",
"n  c #7C7C7C",
"m  c gray49",
"M  c #7E7E7E",
"N  c gray50",
"B  c #808080",
"V  c #818181",
"C  c gray51",
"Z  c #838383",
"A  c #848484",
"S  c gray52",
"D  c #868686",
"F  c gray53",
"G  c #888888",
"H  c #898989",
"J  c gray54",
"K  c #8B8B8B",
"L  c gray55",
"P  c #8D8D8D",
"I  c #8E8E8E",
"U  c gray56",
"Y  c #909090",
"T  c gray57",
"R  c #929292",
"E  c #939393",
"W  c gray58",
"Q  c #959595",
"!  c gray59",
"~  c #979797",
"^  c #989898",
"/  c gray60",
"(  c gray61",
")  c #9D9D9D",
"_  c gray62",
"`  c #9F9F9F",
"'  c #A0A0A0",
"]  c gray63",
"[  c #A2A2A2",
"{  c gray64",
"}  c #A4A4A4",
"|  c #A5A5A5",
" . c gray65",
".. c #A7A7A7",
"X. c gray66",
"o. c #A9A9A9",
"O. c #AAAAAA",
"+. c gray67",
"@. c #ACACAC",
"#. c gray68",
"$. c #AEAEAE",
"%. c #AFAFAF",
"&. c gray69",
"*. c #B1B1B1",
"=. c #B2B2B2",
"-. c gray70",
";. c #B4B4B4",
":. c gray71",
">. c #B6B6B6",
",. c #B7B7B7",
"<. c gray72",
"1. c #B9B9B9",
"2. c gray73",
"3. c #BBBBBB",
"4. c #BCBCBC",
"5. c gray74",
"6. c gray",
"7. c gray75",
"8. c #C0C0C0",
"9. c #C1C1C1",
"0. c gray76",
"q. c #C3C3C3",
"w. c gray77",
"e. c #C5C5C5",
"r. c #C6C6C6",
"t. c gray78",
"y. c #C8C8C8",
"u. c gray79",
"i. c #CACACA",
"p. c #CBCBCB",
"a. c gray80",
"s. c #CDCDCD",
"d. c #CECECE",
"f. c gray81",
"g. c #D0D0D0",
"h. c #D2D2D2",
"j. c LightGray",
"k. c gray83",
"l. c #D5D5D5",
"z. c gray84",
"x. c #D7D7D7",
"c. c #D8D8D8",
"v. c gray85",
"b. c #DADADA",
"n. c gray86",
"m. c gainsboro",
"M. c #DDDDDD",
"N. c gray87",
"B. c #DFDFDF",
"V. c gray88",
"C. c #E2E2E2",
"Z. c gray89",
"A. c #E4E4E4",
"S. c gray90",
"D. c #E6E6E6",
"F. c #E7E7E7",
"G. c gray91",
"H. c #E9E9E9",
"J. c #EAEAEA",
"K. c gray92",
"L. c #ECECEC",
"P. c #EEEEEE",
"I. c #EFEFEF",
"U. c gray94",
"Y. c #F1F1F1",
"T. c gray95",
"R. c #F3F3F3",
"E. c #F4F4F4",
"W. c gray96",
"Q. c #F6F6F6",
"!. c gray97",
"~. c #F8F8F8",
"^. c #FBFBFB",
/* pixels */
"' / X.-.r.u.X.' ' @.u.M.| x % % 0 l D 4 j | d.M.@.| ' ' ' ' ' ' ",
"' ' ! P x p l D D B r > r ' ' ) A.A.A.p B | d.d.| ' ' ' ' ' ' ' ",
"' / / h.x.K.~.W.x.c.B = u.-.-.1.7.x.A.N D ' -.X.| ' ' ' ) ) ) ' ",
"| / u.L.@.X.@.u.-.-.j l X.| ' ' X.7.u.H D @.@.| X.' ' ' ) ) ' ' ",
"| / u.Y.7.' | -.0.X.H P ' ) ) ) ' -.@.R D -.X.@.@.' ' ' ' ' | | ",
"@.! M.M.r.' ' | @.| P ! ' ) ) ) ' | | R B -.-.7.-.| ' ' ' | X.| ",
"X.! M.M.u.' ' ' @.| R ! ' ) ) ' ' ' | P B 1.X.x.1.@.| X.X.@.@.1.",
"R h.u.d.u.| | | -.| R ! ' ' ' ' ' ' X.H a | P x B H H H D H ) P ",
"# B u.V.r.@.@.-.>.| P H @.X.' ' ' X.-.D 0 | X.X.| B x N l r r % ",
"% B B B D H P N H x r a H P ! / ' -.>.x # @.A.d.K.K.u.d.@.r.A.a ",
"X 0 N N B P P % D j H H | ' P ! R P r % 0 @.| r.~.~.W.W.A.d.c.% ",
"# ' H B H D N = = 4 N r.c.' | | | | ' R ' | p x W.W.r.' | ' | % ",
"> 0.>.| ' | R l = p x.d.K.Y.x.' ' ' ' | -.@.r P ~.W.! ! / / ! 7 ",
"B -.| ' ' ' R B 7 ' M.' ' ' ' ' ' ' ' ' X.X.p 4 W.Y.' ' ' ! R H ",
"@.' ' ' ' ' / P 7 ' L.' ' ' ' ' ' ' ' ' ' | p # Y.u.' ' ' ' ' ' ",
"| ' ' ' ' ' / P N ' L.' ' ' ' ' ' ' ' ' | | j 4 Y.0.@.' ' ' | | ",
"| ' ' ' ' ' / R H ' L.' ' ' ' ' ' ' ' ' X.' B x L.-.| ' ' ' ' | ",
"| | ' ' ' | R H D ! Y.' ' ' ' ' ' ' ' ' | ' H P A.X.' ' ' ' | X.",
"@.@.X.| X.1.H B B P Y.X.| ' ' ' ' ' ' | | ' R P x.X.' ' ' ' X.X.",
"P P H D H ) p 7 a N d.P R ) ! ) ' | | X.| ' P H c.@.' ' ' X.-.' ",
"4 4 > > > = = = # % p x B H H ' | | X.X.@.@.H j K.d.X.| X.' p r ",
"> H % r.0.0.7.) 0 r N ' 0.-.D X.| | X.X.1.r.r x L.d.>.>.r.0 X > ",
"r.Y.K.Y.L.A.M.M.0.-.1.r.c.| r R P P P l 7 p > x x.0.1.7.c.x = | ",
"K.L.@.X.X.X.X.X.@.X.X.-.r.x X -.X.M.K.M.7.r.@.>.u.| X.@.r.D l c.",
"Y.u.| | ' ' ' | ' | | | >.N X V.L.K.c.X.X.X.| | ' ' ' | X.R R 7.",
"Y.X.| ' ' ' ' ' ' ' ' | >.x X x.K.c.X.| | | | ' ' ' ' ' ' ! R >.",
"A.' | ' ' ' ' ' ' ' ' X.0.x O 1.M.x.| ' ' ' ' ' ' ' ' ' ' ! H | ",
"M.D ' ' ' ' ' ' ' ' ' | x.x # N M.x.X.| ' ! ! ! / / / ! ! P B | ",
"u.p X.| ' ' ' ' ' ' ' | X.) # N V.c.X.' / X.' ' u.7.' >.r.-.H X.",
"1.H X.1.' ' ' ' ' ' ' | X.) O j d.V.>.! H @.u.r.V.h.x.0.0.7.-.>.",
"X.! | 7.| ' ' ' ' ' ' -.X.) O P ' ) x a a | K.A.-.X.X.| | ' ' | ",
"' / ' >.>.| ' ' ' ' X.M.| ) O 1.' > = > # | A.A.-.| | ' ' ' ' ' "
};
